<region> lovel=1 hivel=5 amp_velcurve_5=1 sample=../samples/_nsmr/pre_roll/kd20full/snare_on/opn/kd20full_p30_opn_b001.wav
<region> lovel=6 hivel=10 amp_velcurve_10=1 sample=../samples/_nsmr/pre_roll/kd20full/snare_on/opn/kd20full_p30_opn_b002.wav
<region> lovel=11 hivel=15 amp_velcurve_15=1 sample=../samples/_nsmr/pre_roll/kd20full/snare_on/opn/kd20full_p30_opn_b003.wav
<region> lovel=16 hivel=20 amp_velcurve_20=1 sample=../samples/_nsmr/pre_roll/kd20full/snare_on/opn/kd20full_p30_opn_b004.wav
<region> lovel=21 hivel=25 amp_velcurve_25=1 sample=../samples/_nsmr/pre_roll/kd20full/snare_on/opn/kd20full_p30_opn_b006.wav
<region> lovel=26 hivel=30 amp_velcurve_30=1 sample=../samples/_nsmr/pre_roll/kd20full/snare_on/opn/kd20full_p30_opn_b007.wav
<region> lovel=31 hivel=35 amp_velcurve_35=1 sample=../samples/_nsmr/pre_roll/kd20full/snare_on/opn/kd20full_p30_opn_b008.wav
<region> lovel=36 hivel=40 amp_velcurve_40=1 sample=../samples/_nsmr/pre_roll/kd20full/snare_on/opn/kd20full_p30_opn_b009.wav
<region> lovel=41 hivel=45 amp_velcurve_45=1 sample=../samples/_nsmr/pre_roll/kd20full/snare_on/opn/kd20full_p30_opn_b010.wav
<region> lovel=46 hivel=50 amp_velcurve_50=1 sample=../samples/_nsmr/pre_roll/kd20full/snare_on/opn/kd20full_p30_opn_b011.wav
<region> lovel=51 hivel=55 amp_velcurve_55=1 sample=../samples/_nsmr/pre_roll/kd20full/snare_on/opn/kd20full_p30_opn_b012.wav
<region> lovel=56 hivel=61 amp_velcurve_61=1 sample=../samples/_nsmr/pre_roll/kd20full/snare_on/opn/kd20full_p30_opn_b013.wav
<region> lovel=62 hivel=67 amp_velcurve_67=1 sample=../samples/_nsmr/pre_roll/kd20full/snare_on/opn/kd20full_p30_opn_b014.wav
<region> lovel=68 hivel=73 amp_velcurve_73=1 sample=../samples/_nsmr/pre_roll/kd20full/snare_on/opn/kd20full_p30_opn_b015.wav
<region> lovel=74 hivel=79 amp_velcurve_79=1 sample=../samples/_nsmr/pre_roll/kd20full/snare_on/opn/kd20full_p30_opn_b016.wav
<region> lovel=80 hivel=85 amp_velcurve_85=1 sample=../samples/_nsmr/pre_roll/kd20full/snare_on/opn/kd20full_p30_opn_b017.wav
<region> lovel=86 hivel=91 amp_velcurve_91=1 sample=../samples/_nsmr/pre_roll/kd20full/snare_on/opn/kd20full_p30_opn_b018.wav
<region> lovel=92 hivel=97 amp_velcurve_97=1 sample=../samples/_nsmr/pre_roll/kd20full/snare_on/opn/kd20full_p30_opn_b019.wav
<region> lovel=98 hivel=103 amp_velcurve_103=1 sample=../samples/_nsmr/pre_roll/kd20full/snare_on/opn/kd20full_p30_opn_b020.wav
<region> lovel=104 hivel=109 amp_velcurve_109=1 sample=../samples/_nsmr/pre_roll/kd20full/snare_on/opn/kd20full_p30_opn_b021.wav
<region> lovel=110 hivel=115 amp_velcurve_115=1 sample=../samples/_nsmr/pre_roll/kd20full/snare_on/opn/kd20full_p30_opn_b022.wav
<region> lovel=116 hivel=121 amp_velcurve_121=1 sample=../samples/_nsmr/pre_roll/kd20full/snare_on/opn/kd20full_p30_opn_b023.wav
<region> lovel=122 hivel=127 amp_velcurve_127=1 sample=../samples/_nsmr/pre_roll/kd20full/snare_on/opn/kd20full_p30_opn_b024.wav
